<?xml version="1.0" standalone="no"?>
<!DOCTYPE svg PUBLIC "-//W3C//DTD SVG 20010904//EN"
 "http://www.w3.org/TR/2001/REC-SVG-20010904/DTD/svg10.dtd">
<svg version="1.0" xmlns="http://www.w3.org/2000/svg"
 width="600.000000pt" height="176.000000pt" viewBox="0 0 600.000000 176.000000"
 preserveAspectRatio="xMidYMid meet">
<g transform="translate(0.000000,176.000000) scale(0.100000,-0.100000)"
fill="#000000" stroke="none">
<path d="M2754 1628 c-5 -8 -44 -53 -86 -99 -74 -80 -78 -82 -92 -64 -15 19
-18 18 -134 -42 l-119 -62 -24 24 c-16 16 -57 33 -130 52 l-105 27 -53 -44
c-51 -43 -55 -45 -110 -42 l-56 3 -58 -94 c-53 -86 -62 -96 -95 -102 -24 -4
-97 -50 -212 -132 l-175 -125 -105 6 c-58 4 -125 9 -150 12 -44 5 -47 3 -124
-61 -98 -81 -85 -75 -130 -65 -37 8 -40 6 -134 -70 -89 -71 -103 -79 -164 -90
-62 -11 -78 -20 -188 -103 -66 -49 -120 -94 -120 -99 0 -10 27 -11 32 0 2 4
51 44 110 89 98 76 111 83 175 94 63 11 75 17 160 85 69 56 100 74 123 74 16
0 30 -4 30 -10 0 -5 -19 -56 -41 -112 -40 -98 -88 -263 -89 -300 0 -10 4 -18
8 -18 4 0 19 44 32 97 12 54 45 152 71 218 l48 120 83 68 c66 53 88 66 108 63
14 -3 76 -8 138 -12 61 -4 112 -10 112 -14 0 -3 -11 -40 -25 -80 -29 -86 -28
-80 -12 -80 7 0 23 37 37 85 l25 85 68 48 c37 26 116 82 175 124 69 50 120 80
144 84 34 6 43 15 96 98 l59 91 47 1 c26 0 45 -2 43 -5 -1 -3 -15 -32 -31 -64
-25 -52 -35 -61 -116 -110 -49 -28 -90 -58 -90 -64 0 -7 2 -13 4 -13 3 0 47
26 98 58 90 56 94 60 129 132 25 51 50 86 78 108 l41 33 -6 -31 c-5 -23 0 -38
20 -64 14 -19 26 -37 26 -39 0 -3 -37 -36 -82 -73 -46 -37 -87 -70 -91 -74 -4
-4 0 -23 9 -43 l17 -35 -159 -154 c-88 -84 -185 -178 -216 -208 -51 -49 -158
-219 -158 -250 0 -27 20 -1 69 90 35 65 71 116 100 142 25 23 124 117 218 209
l173 167 -15 29 c-8 15 -15 33 -14 38 0 13 167 148 177 143 4 -2 33 -21 64
-43 42 -30 65 -55 90 -102 32 -61 36 -64 168 -142 l135 -80 38 -71 c21 -38 43
-70 48 -70 16 0 10 17 -30 86 -38 65 -44 70 -172 148 -127 77 -135 84 -171
145 -29 51 -51 73 -111 115 -81 55 -101 80 -111 140 -7 34 -5 38 10 32 10 -4
55 -16 100 -27 78 -20 87 -25 140 -80 32 -32 61 -65 66 -73 5 -9 13 -16 18
-16 21 0 8 26 -31 66 l-41 42 88 46 c48 25 89 44 91 43 1 -2 -4 -21 -12 -42
-8 -22 -14 -48 -15 -57 0 -28 19 -21 26 10 3 15 12 46 21 70 12 35 18 41 29
31 20 -16 17 -93 -6 -167 -23 -72 -24 -82 -10 -82 14 0 50 126 50 177 0 42 5
51 76 131 l77 85 -7 -47 c-6 -37 -5 -47 5 -44 7 2 15 22 17 44 5 59 6 59 32
20 21 -31 29 -36 53 -32 21 4 27 2 27 -12 0 -9 3 -27 6 -38 5 -17 -6 -31 -56
-70 l-62 -48 44 -15 c23 -7 44 -15 46 -16 2 -2 -8 -26 -22 -54 -30 -58 -30
-61 -13 -61 10 0 33 43 65 121 2 4 -13 12 -32 19 -20 6 -36 15 -35 18 0 4 19
21 42 38 39 28 42 34 40 72 -2 46 4 49 48 26 30 -15 32 -15 87 24 l57 39 72
-21 c39 -12 74 -23 76 -26 3 -3 -33 -45 -79 -95 -78 -84 -87 -98 -129 -205
-24 -63 -41 -118 -36 -123 4 -4 27 43 51 104 44 115 56 133 170 252 l55 57 50
-88 c45 -82 56 -93 124 -138 88 -58 91 -60 91 -42 -1 7 -32 33 -71 57 -55 34
-78 56 -109 104 -21 34 -37 63 -35 65 2 2 35 -22 74 -53 71 -57 71 -57 113
-47 35 9 45 8 64 -6 11 -9 42 -33 67 -52 26 -19 46 -37 47 -40 0 -3 -58 -29
-128 -59 -121 -51 -131 -57 -223 -145 -90 -85 -339 -357 -339 -370 0 -23 39
11 125 111 110 128 295 315 308 310 4 -1 25 -24 45 -50 30 -38 53 -55 117 -84
89 -39 125 -50 125 -37 0 5 -43 27 -96 49 -84 36 -99 46 -135 93 l-40 53 33
13 c18 8 71 31 117 50 46 20 86 35 88 33 2 -2 -3 -22 -11 -45 -9 -25 -11 -44
-5 -47 10 -7 13 -1 32 64 13 46 29 57 115 75 29 7 33 5 49 -28 12 -26 40 -50
104 -91 69 -44 98 -70 143 -130 31 -42 61 -73 67 -69 6 3 6 10 1 17 -106 137
-117 149 -196 198 -47 29 -90 65 -99 82 -10 16 -16 31 -15 32 2 2 38 10 81 17
l77 15 138 -94 c75 -52 141 -98 145 -103 5 -4 -1 -26 -12 -48 -12 -23 -21 -46
-21 -51 0 -6 27 -59 60 -119 52 -93 73 -120 150 -190 49 -45 91 -78 95 -73 5
9 -37 52 -127 130 -21 18 -63 79 -97 141 l-61 108 21 46 c15 35 25 46 37 42 9
-3 69 -12 132 -22 99 -14 198 -15 262 -1 7 1 17 -12 23 -29 5 -17 15 -31 20
-32 11 -1 11 9 1 49 -6 22 -3 27 32 43 l39 18 61 -48 60 -48 -38 -56 c-21 -30
-72 -84 -113 -120 -65 -56 -92 -90 -71 -90 15 0 169 151 201 198 l37 53 96
-96 c64 -64 119 -110 170 -138 41 -24 123 -75 182 -115 65 -43 110 -68 113
-61 4 6 5 11 4 13 -40 27 -269 172 -310 195 -31 17 -96 71 -145 120 -89 89
-89 89 -60 95 15 3 36 6 45 6 28 0 141 -88 157 -124 13 -27 32 -40 103 -71 47
-22 122 -55 166 -76 100 -46 351 -158 362 -161 4 -2 9 1 11 6 3 8 -108 61
-474 225 -124 56 -143 68 -157 97 -9 19 -45 54 -83 82 l-66 48 -59 -9 -59 -10
-65 58 -66 58 -48 -27 c-84 -45 -172 -52 -338 -27 l-143 22 -153 104 -153 103
-99 -18 c-55 -9 -128 -25 -162 -35 l-62 -17 -75 62 -76 62 -42 -10 -41 -11
-101 77 c-88 68 -113 81 -194 105 l-93 28 -50 -37 -50 -37 -59 18 c-32 10 -64
14 -71 10 -8 -6 -26 8 -54 40 -34 39 -44 45 -51 33z"/>
</g>
</svg>
